<?xml version="1.0" encoding="UTF-8"?>
<svg width="98px" height="42px" viewBox="0 0 98 42" version="1.1" xmlns="http://www.w3.org/2000/svg" xmlns:xlink="http://www.w3.org/1999/xlink">
    <!-- Generator: Sketch 44.1 (41455) - http://www.bohemiancoding.com/sketch -->
    <title>hatchback_big</title>
    <desc>Created with Sketch.</desc>
    <defs></defs>
    <g id="Page-1" stroke="none" stroke-width="1" fill="none" fill-rule="evenodd">
        <g id="homepage-copy" transform="translate(-670.000000, -1307.000000)" fill="#58595B">
            <g id="Group-18" transform="translate(336.000000, 1284.000000)">
                <g id="Group-6">
                    <g id="Group-17">
                        <g id="Group-5">
                            <g id="hatchback_big" transform="translate(383.000000, 44.290759) scale(-1, 1) translate(-383.000000, -44.290759) translate(334.000000, 23.449887)">
                                <path d="M88.362459,28.4962452 C86.9753586,24.9044487 83.4659659,22.3427362 79.354922,22.3427362 C75.2424422,22.3427362 71.7330495,24.9044487 70.3445131,28.4962452 L28.7616558,28.4962452 C27.3731195,24.9044487 23.8637268,22.3427362 19.7526829,22.3427362 C15.6387671,22.3427362 12.1293744,24.9044487 10.7408381,28.4962452 L2.06643496,28.4962452 C1.45186046,27.05839 1.11011109,25.4784541 1.11011109,23.8217948 L1.11011109,20.9318763 C1.11011109,18.7353108 1.94581753,16.643885 3.4635868,15.0426371 L12.2155297,5.80597996 C15.0500392,2.81518419 19.0505172,1.10027185 23.1945873,1.10027185 L39.9991793,1.10027185 C47.8177731,1.10027185 55.3908243,3.36787757 61.8984215,7.66013125 L71.4401214,13.9543 L71.4401214,13.9557208 C72.1868007,14.4473196 73.0124557,14.7542136 73.8926757,14.8692988 L85.2206623,16.344095 C88.2834833,16.7433414 90.9729647,18.2181376 92.9430493,20.3450836 L87.6904476,20.3450836 C87.3831604,20.3450836 87.1361818,20.5923037 87.1361818,20.8949353 C87.1361818,21.1989877 87.3831604,21.4462079 87.6904476,21.4462079 L93.866347,21.4462079 C95.3410386,23.4467022 96.2255664,25.8848045 96.3131576,28.4962452 L88.362459,28.4962452 Z M89.5772488,35.8432309 L88.1312756,35.8432309 C88.6869773,34.6383878 89.0057519,33.3028305 89.0057519,31.8933914 C89.0057519,31.1005819 88.8966219,30.3333468 88.711388,29.5959487 L96.2887469,29.5959487 C96.0561276,33.0755016 93.149822,35.8432309 89.5772488,35.8432309 L89.5772488,35.8432309 Z M86.857613,35.8432309 C86.7585344,36.0279357 86.6680714,36.2183236 86.5560695,36.3945035 C86.4325802,36.5848914 86.2990395,36.7639129 86.161191,36.9443553 C84.6003441,38.9959985 82.143482,40.344343 79.354922,40.344343 C76.5649261,40.344343 74.1066281,38.9959985 72.5472171,36.9429344 C72.4108045,36.7624921 72.274392,36.5848914 72.1523386,36.3945035 C72.0389008,36.2183236 71.9484377,36.0279357 71.8493591,35.8432309 C71.2103739,34.6596999 70.8126236,33.328405 70.8126236,31.8933914 C70.8126236,31.092057 70.9633954,30.331926 71.1744759,29.5959487 C71.227605,29.411244 71.2807341,29.2265393 71.3467865,29.046097 C71.4142748,28.8628131 71.4674039,28.6738459 71.5463796,28.4962452 C72.8731713,25.5267615 75.868504,23.4424397 79.354922,23.4424397 C82.839904,23.4424397 85.8352368,25.5267615 87.1620284,28.4962452 C87.2410041,28.6738459 87.2941332,28.8628131 87.3616216,29.046097 C87.427674,29.2265393 87.4808031,29.411244 87.5339322,29.5959487 C87.7450127,30.331926 87.8957844,31.092057 87.8957844,31.8933914 C87.8957844,33.328405 87.4980341,34.6596999 86.857613,35.8432309 L86.857613,35.8432309 Z M28.5290365,35.8418101 C29.0861741,34.636967 29.4035128,33.3028305 29.4035128,31.8933914 C29.4035128,31.1005819 29.2943828,30.3333468 29.1091489,29.5959487 L69.9970201,29.5959487 C69.8117862,30.3333468 69.7026561,31.1005819 69.7026561,31.8933914 C69.7026561,33.3028305 70.0214308,34.6383878 70.5771325,35.8432309 L28.5290365,35.8418101 Z M27.2568098,35.8418101 C27.1577312,36.0265148 27.0672682,36.2169028 26.9538304,36.3930827 C26.831777,36.5834706 26.6968004,36.7624921 26.5589519,36.9429344 C24.9995409,38.9959985 22.5412429,40.344343 19.7526829,40.344343 C16.9555074,40.344343 14.4900298,38.9888945 12.9306188,36.9258848 C12.7898984,36.7397593 12.6534859,36.5536337 12.5271248,36.3561417 C12.412251,36.1742786 12.3189161,35.9810491 12.2184016,35.7906611 C11.5952115,34.6184965 11.2103845,33.3070929 11.2103845,31.8933914 C11.2103845,31.092057 11.3597204,30.331926 11.5708009,29.5959487 C11.6253659,29.411244 11.678495,29.2265393 11.7445474,29.046097 C11.8105998,28.8628131 11.8651648,28.6738459 11.9427046,28.4962452 C13.2694963,25.5267615 16.2662649,23.4424397 19.7526829,23.4424397 C23.2376649,23.4424397 26.2329976,25.5267615 27.5597893,28.4962452 C27.638765,28.6738459 27.6918941,28.8628131 27.7593824,29.046097 C27.8254348,29.2265393 27.878564,29.411244 27.9316931,29.5959487 C28.1427735,30.331926 28.2935453,31.092057 28.2935453,31.8933914 C28.2935453,33.3269842 27.8972309,34.6582791 27.2568098,35.8418101 L27.2568098,35.8418101 Z M2.60921337,29.5959487 L10.3933451,29.5959487 C10.2081112,30.3333468 10.0989811,31.1005819 10.0989811,31.8933914 C10.0989811,33.2090574 10.3703703,34.4636287 10.8571478,35.6045356 C7.3032415,34.8955536 4.30647286,32.6478392 2.60921337,29.5959487 L2.60921337,29.5959487 Z M85.3671263,15.2543371 L74.0377038,13.7781201 C73.3269226,13.6857678 72.659219,13.4371268 72.0575678,13.0393012 L72.0575678,13.040722 L62.5158679,6.74513245 C55.8244726,2.3335311 48.038905,0.000568322236 39.9991793,0.000568322236 L23.1945873,0.000568322236 C18.7461018,0.000568322236 14.448388,1.84193237 11.404234,5.0543738 L2.65516287,14.2896101 C0.942108246,16.095454 0.000143592173,18.4539913 0.000143592173,20.9318763 L0.000143592173,23.8217948 C0.000143592173,30.4626402 5.01581819,35.9540538 11.4932611,36.8122203 C13.1862128,39.5827912 16.2490339,41.4440466 19.7526829,41.4440466 C23.200331,41.4440466 26.2229462,39.6410443 27.9288212,36.9429344 L71.1773477,36.9429344 C72.8860946,39.6410443 75.9072739,41.4440466 79.354922,41.4440466 C82.8011341,41.4440466 85.8223135,39.6410443 87.5310603,36.9443553 L89.5772488,36.9443553 C93.9137324,36.9443553 97.4417921,33.4520151 97.4417921,29.1597614 L97.4417921,28.9182245 C97.4417921,22.0244758 92.250935,16.1508655 85.3671263,15.2543371 L85.3671263,15.2543371 Z" id="Fill-1"></path>
                                <path d="M15.6282849,5.27772444 C15.4042811,5.06886602 15.0524803,5.07454924 14.8413998,5.29477411 L4.98379714,15.5075247 C4.77128072,15.7263287 4.77846033,16.0758469 5.0010282,16.2847053 L5.3844193,16.4367315 C5.53231924,16.4367315 5.67878325,16.3798993 5.78647738,16.2676557 L15.645516,6.0549051 C15.8565965,5.83610104 15.8494169,5.48658286 15.6282849,5.27772444" id="Fill-3"></path>
                                <path d="M37.3747451,19.3303442 L34.4957221,19.3303442 C34.1884348,19.3303442 33.9400203,19.5761436 33.9400203,19.880196 C33.9400203,20.1842484 34.1884348,20.4300477 34.4957221,20.4300477 L37.3747451,20.4300477 C37.6820324,20.4300477 37.9304468,20.1842484 37.9304468,19.880196 C37.9304468,19.5761436 37.6820324,19.3303442 37.3747451,19.3303442" id="Fill-5"></path>
                                <path d="M81.2501951,35.8437992 C80.6729545,36.1165939 80.0339694,36.2814074 79.3547784,36.2814074 C78.6727156,36.2814074 78.0351663,36.1165939 77.4579258,35.8437992 C75.9616954,35.1376589 74.9192162,33.6401298 74.9192162,31.8939597 C74.9192162,31.0485804 75.1733743,30.2657165 75.5940994,29.5965171 C75.7161527,29.4004459 75.8568731,29.2200036 76.0090808,29.0466653 C76.1828273,28.8449109 76.3738049,28.6630478 76.5820135,28.4968135 C77.344488,27.8858671 78.2993759,27.5050912 79.3547784,27.5050912 C80.407309,27.5050912 81.3636329,27.8858671 82.1246714,28.4968135 C82.334316,28.6630478 82.5252936,28.8449109 82.700476,29.0466653 C82.8512478,29.2200036 82.9934041,29.4004459 83.1154574,29.5965171 C83.5347466,30.2657165 83.7903406,31.0485804 83.7903406,31.8939597 C83.7903406,33.6401298 82.7449896,35.1376589 81.2501951,35.8437992 M84.0717813,29.0466653 C83.9511639,28.8534357 83.8161872,28.6729934 83.674031,28.4968135 C82.6573984,27.2322966 81.1094748,26.4053877 79.3547784,26.4053877 C77.5986461,26.4053877 76.0507225,27.2322966 75.0340899,28.4968135 C74.8904977,28.6729934 74.756957,28.8534357 74.6377755,29.0466653 C74.5272096,29.224266 74.4238232,29.4061291 74.336232,29.5965171 C74.00597,30.2969742 73.8078128,31.0713133 73.8078128,31.8939597 C73.8078128,33.4469002 74.4697727,34.8449729 75.5223033,35.8437992 C75.7319479,36.0441328 75.9559517,36.2288376 76.1957506,36.393651 C76.5059097,36.6081927 76.8361717,36.795739 77.1879725,36.9435028 C77.8542402,37.2248223 78.5865603,37.3811109 79.3547784,37.3811109 C80.1229965,37.3811109 80.8553166,37.2248223 81.5201484,36.9435028 C81.8733851,36.795739 82.2022112,36.6081927 82.5123703,36.393651 C82.7521692,36.2288376 82.976173,36.0441328 83.1858176,35.8437992 C84.2369123,34.8449729 84.8988722,33.4469002 84.8988722,31.8939597 C84.8988722,31.0713133 84.7021509,30.2969742 84.3733248,29.5965171 C84.2828618,29.4061291 84.1809113,29.224266 84.0717813,29.0466653" id="Fill-7"></path>
                                <path d="M21.651115,35.8423784 C21.0738745,36.1151731 20.4334534,36.2814074 19.7528265,36.2814074 C19.0707637,36.2814074 18.4317785,36.1151731 17.853102,35.8423784 C16.3583075,35.1362381 15.3158283,33.638709 15.3158283,31.8939597 C15.3158283,31.0485804 15.5714224,30.2657165 15.9907116,29.5965171 C16.1142008,29.4004459 16.2534852,29.2200036 16.4056929,29.0466653 C16.5808754,28.8449109 16.771853,28.6630478 16.9800616,28.4968135 C17.7425361,27.8858671 18.6988599,27.5050912 19.7528265,27.5050912 C20.806793,27.5050912 21.761681,27.8858671 22.5241554,28.4968135 C22.7323641,28.6630478 22.9247776,28.8449109 23.0985241,29.0466653 C23.2492959,29.2200036 23.3914521,29.4004459 23.5135055,29.5965171 C23.9342306,30.2657165 24.1883887,31.0485804 24.1883887,31.8939597 C24.1883887,33.638709 23.1444736,35.1362381 21.651115,35.8423784 M24.4698294,29.0466653 C24.3506479,28.8534357 24.2156712,28.6729934 24.073515,28.4968135 C23.0568824,27.2322966 21.5075228,26.4053877 19.7528265,26.4053877 C17.9966942,26.4053877 16.4473347,27.2322966 15.4307021,28.4968135 C15.2871099,28.6729934 15.1535692,28.8534357 15.0343877,29.0466653 C14.9238217,29.224266 14.8204353,29.4061291 14.7328441,29.5965171 C14.4025821,30.2969742 14.2058608,31.0713133 14.2058608,31.8939597 C14.2058608,33.4454794 14.8663848,34.8435521 15.9189155,35.8423784 C16.1271241,36.042712 16.3525638,36.2274168 16.5923628,36.3922302 C16.9010859,36.6067718 17.2313479,36.7943182 17.5831487,36.942082 C18.2494164,37.2248223 18.9831724,37.3811109 19.7528265,37.3811109 C20.5224805,37.3811109 21.2562365,37.2248223 21.9210683,36.942082 C22.274305,36.7943182 22.6016952,36.6067718 22.9118543,36.393651 C23.1516532,36.2274168 23.375657,36.042712 23.5867375,35.8423784 C24.6363963,34.8435521 25.2983562,33.4454794 25.2983562,31.8939597 C25.2983562,31.0713133 25.100199,30.2969742 24.7713729,29.5965171 C24.6823458,29.4061291 24.5789594,29.224266 24.4698294,29.0466653" id="Fill-9"></path>
                                <path d="M69.2033861,16.9209421 C69.1732318,17.0132944 69.0396911,17.308822 68.6505563,17.294614 L32.3045055,15.4646164 L30.7508382,4.58834957 L39.9694557,4.58834957 C47.2294759,4.58834957 54.2712361,6.6811962 60.3279539,10.6409814 L68.9836901,16.2972084 C69.3082084,16.5089085 69.2335405,16.8285897 69.2033861,16.9209421 L69.2033861,16.9209421 Z M14.8250303,14.5851377 C14.6038983,14.5737713 14.4143567,14.4558444 14.3066625,14.261194 C14.2564053,14.1688417 14.1573267,13.9287255 14.316714,13.6587725 L17.7485669,7.83915276 C18.9288946,5.83297527 21.122983,4.58834957 23.4678432,4.58834957 L29.6279474,4.58834957 L31.1729992,15.4077841 L14.8250303,14.5851377 Z M69.5968287,15.379368 L60.9425284,9.72314097 C54.7005767,5.64400812 47.449172,3.48864604 39.9694557,3.48864604 L23.4678432,3.48864604 C20.7281045,3.48864604 18.1678561,4.94355097 16.7879353,7.28503858 L13.3546464,13.1032375 C13.050231,13.6246731 13.0401796,14.25409 13.3302358,14.7854713 C13.620292,15.3168526 14.1573267,15.6521627 14.7690293,15.6834204 L68.5959913,18.3928967 L68.6850184,18.3957383 C69.4058511,18.3957383 70.031913,17.9496053 70.2587886,17.2633562 C70.4957157,16.5501118 70.2300702,15.7928224 69.5968287,15.379368 L69.5968287,15.379368 Z" id="Fill-11"></path>
                            </g>
                        </g>
                    </g>
                </g>
            </g>
        </g>
    </g>
</svg>