<?xml version="1.0" encoding="UTF-8"?>
<svg width="106px" height="61px" viewBox="0 0 106 61" version="1.1" xmlns="http://www.w3.org/2000/svg" xmlns:xlink="http://www.w3.org/1999/xlink">
    <!-- Generator: Sketch 44.1 (41455) - http://www.bohemiancoding.com/sketch -->
    <title>outsation_big</title>
    <desc>Created with Sketch.</desc>
    <defs>
        <polygon id="path-1" points="105.784047 40.5984993 105.784047 0.291110589 0.000452564981 0.291110589 0.000452564981 40.5984993"></polygon>
        <polygon id="path-3" points="33.0635169 0.153669284 0 0.153669284 0 23.2673875 33.0635169 23.2673875"></polygon>
    </defs>
    <g id="Page-1" stroke="none" stroke-width="1" fill="none" fill-rule="evenodd">
        <g id="homepage-copy" transform="translate(-998.000000, -1289.000000)">
            <g id="Group-18" transform="translate(336.000000, 1284.000000)">
                <g id="Group-6">
                    <g id="Group-17">
                        <g id="Group-5">
                            <g id="outsation_big" transform="translate(715.000000, 33.001953) scale(-1, 1) translate(-715.000000, -33.001953) translate(662.000000, 0.003906)">
                                <g id="Page-1-Copy-8" transform="translate(0.000000, 23.156524)">
                                    <g id="Group-3" transform="translate(0.000000, 1.581410)">
                                        <mask id="mask-2" fill="white">
                                            <use xlink:href="#path-1"></use>
                                        </mask>
                                        <g id="Clip-2"></g>
                                        <path d="M93.9212631,26.3406966 C92.3282344,22.8326335 88.7921933,20.3831544 84.6859204,20.3831544 C80.5781389,20.3831544 77.0436064,22.8326335 75.4505777,26.3406966 L31.3043723,26.3406966 C29.7128521,22.8326335 26.1768111,20.3831544 22.0690296,20.3831544 C17.9612481,20.3831544 14.4252071,22.8326335 12.8321783,26.3406966 L1.69606269,26.3406966 C1.39586126,25.4384943 1.22388656,24.4806563 1.18617282,23.4867301 L4.13538794,23.4867301 C4.45821763,23.4867301 4.71919677,23.2265952 4.71919677,22.9048097 C4.71919677,22.5830242 4.45821763,22.3228893 4.13538794,22.3228893 L1.16656167,22.3228893 L1.16656167,18.4990554 L4.13538794,18.4990554 C4.45821763,18.4990554 4.71919677,18.2374168 4.71919677,17.9156313 C4.71919677,17.5953495 4.45821763,17.3337109 4.13538794,17.3337109 L1.19824122,17.3337109 C1.28121146,16.0856644 1.79411844,14.9248309 2.70377405,14.0451837 C3.65566906,13.1264411 4.89720566,12.6257189 6.24132366,12.6257189 L6.41028125,12.6287262 L10.4471609,12.552039 C10.9706277,12.5415133 11.4865518,12.3986646 11.9421339,12.137026 L26.384991,3.7901516 C29.0279705,2.26242248 32.0420532,1.45495148 35.1013925,1.45495148 L49.2953389,1.45495148 C56.3764723,1.45495148 63.2237804,3.54054232 69.0965654,7.48617344 L78.9624819,14.1158562 C79.8298982,14.6225931 80.8179984,14.9082905 81.8226926,14.9458823 L97.2476157,15.5157734 L97.2506328,15.5157734 C99.9041722,15.6014826 102.176048,17.0149328 103.470384,19.1020273 L97.5553599,19.1020273 C97.2325302,19.1020273 96.9715511,19.3621622 96.9715511,19.6839477 C96.9715511,20.0057332 97.2325302,20.2643645 97.5553599,20.2643645 L104.069279,20.2643645 C104.419262,21.1410043 104.618391,22.0943314 104.618391,23.0987832 C104.618391,24.231047 104.428313,25.3197044 104.087381,26.3406966 L93.9212631,26.3406966 Z M94.384388,33.4350135 C94.6695039,32.5042415 94.8263931,31.5148264 94.8263931,30.4908269 C94.8263931,29.4517906 94.6664868,28.4488425 94.3738281,27.5045374 L103.615205,27.5045374 C101.970886,30.9674904 98.4619984,33.3793777 94.384388,33.4350135 L94.384388,33.4350135 Z M93.117206,33.4425318 C92.9738938,33.8470192 92.8019191,34.2319588 92.604299,34.6078764 C91.1048004,37.4618428 88.1374827,39.4346584 84.6859204,39.4346584 C81.2343581,39.4346584 78.2670404,37.4618428 76.7675418,34.6078764 C76.5699217,34.2319588 76.397947,33.8470192 76.2546348,33.4425318 C75.9257709,32.5132635 75.7130654,31.5313668 75.7130654,30.4908269 C75.7130654,29.4397612 75.928788,28.4443314 76.2651947,27.5045374 C76.411524,27.1000501 76.5865158,26.7166142 76.7856444,26.3406966 C78.2926858,23.5047742 81.2494436,21.5469953 84.6859204,21.5469953 C88.1223972,21.5469953 91.079155,23.5047742 92.5846879,26.3406966 C92.785325,26.7166142 92.9603168,27.1000501 93.1066462,27.5045374 C93.4430528,28.4443314 93.6587754,29.4397612 93.6587754,30.4908269 C93.6587754,31.5313668 93.4460699,32.5132635 93.117206,33.4425318 L93.117206,33.4425318 Z M74.9889614,33.4425318 L31.7659886,33.4425318 C32.0511045,32.5087525 32.2095023,31.5178337 32.2095023,30.4908269 C32.2095023,29.4517906 32.049596,28.4488425 31.7569373,27.5045374 L74.9980127,27.5045374 C74.705354,28.4488425 74.5454477,29.4517906 74.5454477,30.4908269 C74.5454477,31.5178337 74.7038455,32.5087525 74.9889614,33.4425318 L74.9889614,33.4425318 Z M30.5003152,33.4425318 C30.357003,33.8470192 30.1865368,34.2319588 29.9889168,34.6078764 C28.4879096,37.4618428 25.5205919,39.4346584 22.0690296,39.4346584 C18.6189759,39.4346584 15.6501496,37.4618428 14.1491424,34.6078764 C13.9515224,34.2319588 13.7795477,33.8470192 13.6362354,33.4425318 C13.3073716,32.5132635 13.094666,31.5313668 13.094666,30.4908269 C13.094666,29.4397612 13.3103887,28.4443314 13.6483038,27.5045374 C13.7931246,27.1000501 13.9681164,26.7166142 14.1687536,26.3406966 C15.675795,23.5047742 18.6325528,21.5469953 22.0690296,21.5469953 C25.5055064,21.5469953 28.4622642,23.5047742 29.9693056,26.3406966 C30.1684342,26.7166142 30.343426,27.1000501 30.4897554,27.5045374 C30.826162,28.4443314 31.0418846,29.4397612 31.0418846,30.4908269 C31.0418846,31.5313668 30.8291791,32.5132635 30.5003152,33.4425318 L30.5003152,33.4425318 Z M12.3720706,33.4425318 L11.5468938,33.4425318 C7.40441566,33.4425318 3.83367796,31.0080895 2.16974738,27.5045374 L12.3811219,27.5045374 C12.0869547,28.4488425 11.9270484,29.4517906 11.9270484,30.4908269 C11.9270484,31.5178337 12.0854461,32.5087525 12.3720706,33.4425318 L12.3720706,33.4425318 Z M97.2898551,14.3534361 L81.8664406,13.7835451 C81.0548407,13.7534717 80.2538007,13.5204027 79.5840045,13.1309521 L69.7497675,6.52232072 C63.6838882,2.44587027 56.6118061,0.291110589 49.2953389,0.291110589 L35.1013925,0.291110589 C31.838399,0.291110589 28.6221705,1.15271373 25.798165,2.78419611 L11.358325,11.1295668 C11.0747177,11.2919632 10.751888,11.3821834 10.4245326,11.3881981 L6.41631545,11.4648853 C4.75992762,11.4032348 3.11259109,12.0287617 1.89066564,13.209143 C0.671757287,14.3865169 0.000452564981,15.9683782 0.000452564981,17.6630147 L0.000452564981,23.0987832 C0.000452564981,29.4442723 5.1793045,34.6078764 11.5468938,34.6078764 L12.8155843,34.6078764 C14.4010703,38.1324798 17.9491797,40.5984993 22.0690296,40.5984993 C26.190388,40.5984993 29.7369889,38.1324798 31.3209664,34.6078764 L75.4339836,34.6078764 C77.0194696,38.1324798 80.564562,40.5984993 84.6859204,40.5984993 C88.8057703,40.5984993 92.3523712,38.1324798 93.9378572,34.6078764 L94.2395672,34.6078764 C100.605648,34.6078764 105.7845,29.4442723 105.7845,23.0987832 C105.7845,18.3471847 102.053856,14.5068105 97.2898551,14.3534361 L97.2898551,14.3534361 Z" id="Fill-1" fill="#58595B" mask="url(#mask-2)"></path>
                                    </g>
                                    <polygon id="Path-47" stroke="#58595B" stroke-width="0.5" points="34.2742546 2.46758817 34.2742546 0.151730182 54.1026556 0.276363018 54.1026556 3.01109013"></polygon>
                                    <path d="M52.1001858,15.1460208 C52.0956601,15.1234658 52.0986772,15.1009107 52.0896259,15.0798593 L49.1177825,6.6382537 L50.0364895,6.6382537 C57.1432682,6.6382537 64.0433756,9.16141263 69.4651041,13.7430963 L71.9149892,15.8091395 L52.1001858,15.1460208 Z M31.066474,14.4407994 C30.0301002,14.406215 29.1430728,13.7927175 28.7478327,12.8378868 C28.3495756,11.8815524 28.545687,10.8169537 29.3572869,9.95384693 C31.3349959,7.8472047 34.1212876,6.6382537 36.9980923,6.6382537 L47.8807716,6.6382537 L50.8631748,15.103918 L31.066474,14.4407994 Z M50.0364895,5.47441282 L36.9980923,5.47441282 C33.7984579,5.47441282 30.7014049,6.81719048 28.4038834,9.26366222 C27.3750523,10.3583343 27.094462,11.8980928 27.667711,13.2829732 C28.24096,14.6648463 29.5277531,15.5535155 31.0257431,15.6046403 L73.2198849,17.0180905 L73.2410046,17.0180905 C73.5502573,17.0180905 73.8157621,16.824117 73.9092922,16.5293976 L73.977177,16.030179 L70.2208876,12.8544271 C64.5864536,8.09531032 57.4193329,5.47441282 50.0364895,5.47441282 L50.0364895,5.47441282 Z" id="Fill-4" fill="#58595B"></path>
                                    <path d="M88.2522833,35.0242427 C87.851009,35.5054173 87.3592217,35.9008826 86.7965326,36.1880836 C86.1599245,36.5143801 85.4509061,36.7158719 84.6860713,36.7158719 C83.9212364,36.7158719 83.2107094,36.5143801 82.5741013,36.1880836 C82.0114122,35.9008826 81.5196249,35.5054173 81.1183507,35.0242427 C80.4470459,34.2197791 80.0261605,33.2002905 80.0261605,32.0725377 C80.0261605,30.9297482 80.4591143,29.8967267 81.1470131,29.0862483 C81.5588472,28.6020665 82.0611944,28.2066012 82.6374604,27.9224074 C83.2574745,27.6171624 83.9468818,27.4292036 84.6860713,27.4292036 C85.4237522,27.4292036 86.1131595,27.6171624 86.7331735,27.9224074 C87.3094396,28.2066012 87.8117867,28.6020665 88.2236209,29.0862483 C88.9115196,29.8967267 89.345982,30.9297482 89.345982,32.0725377 C89.345982,33.2002905 88.923588,34.2197791 88.2522833,35.0242427 M88.7485962,27.9224074 C87.6986455,26.8999116 86.2670316,26.263859 84.6860713,26.263859 C83.1051109,26.263859 81.673497,26.8999116 80.6220377,27.9224074 C80.269037,28.266748 79.9733613,28.6622133 79.7153992,29.0862483 C79.1828811,29.9628882 78.8600514,30.9778657 78.8600514,32.0725377 C78.8600514,33.1551804 79.1768469,34.1566249 79.6957881,35.0242427 C79.9477159,35.4467741 80.2343404,35.8437431 80.5813069,36.1880836 C81.6342747,37.2331345 83.0854998,37.8797128 84.6860713,37.8797128 C86.2851342,37.8797128 87.7363592,37.2331345 88.7893271,36.1880836 C89.1378021,35.8437431 89.4229181,35.4467741 89.6748459,35.0242427 C90.1937871,34.1566249 90.5105826,33.1551804 90.5105826,32.0725377 C90.5105826,30.9778657 90.1877529,29.9628882 89.6567433,29.0862483 C89.3987813,28.6622133 89.1015969,28.266748 88.7485962,27.9224074" id="Fill-6" fill="#58595B"></path>
                                    <path d="M56.7186114,19.435391 L53.6954773,19.435391 C53.3726476,19.435391 53.1116685,19.695526 53.1116685,20.0173114 C53.1116685,20.3390969 53.3726476,20.5992319 53.6954773,20.5992319 L56.7186114,20.5992319 C57.0414411,20.5992319 57.3024202,20.3390969 57.3024202,20.0173114 C57.3024202,19.695526 57.0414411,19.435391 56.7186114,19.435391" id="Fill-8" fill="#58595B"></path>
                                    <path d="M34.197922,19.435391 L31.1747879,19.435391 C30.8519582,19.435391 30.5909791,19.695526 30.5909791,20.0173114 C30.5909791,20.3390969 30.8519582,20.5992319 31.1747879,20.5992319 L34.197922,20.5992319 C34.5207516,20.5992319 34.7817308,20.3390969 34.7817308,20.0173114 C34.7817308,19.695526 34.5207516,19.435391 34.197922,19.435391" id="Fill-10" fill="#58595B"></path>
                                    <path d="M25.6356942,35.0242427 C25.2344199,35.5054173 24.7426327,35.9008826 24.1814521,36.1880836 C23.5433355,36.5143801 22.834317,36.7158719 22.0694822,36.7158719 C21.3061559,36.7158719 20.5941203,36.5143801 19.9575123,36.1880836 C19.3933146,35.9008826 18.9030358,35.5054173 18.5017616,35.0242427 C17.8289483,34.2197791 17.4080629,33.2002905 17.4080629,32.0725377 C17.4080629,30.9297482 17.8410167,29.8967267 18.530424,29.0862483 C18.9422581,28.6020665 19.4446053,28.2066012 20.0208714,27.9224074 C20.6408854,27.6171624 21.3302927,27.4292036 22.0694822,27.4292036 C22.8071631,27.4292036 23.4965704,27.6171624 24.118093,27.9224074 C24.6928505,28.2066012 25.1967062,28.6020665 25.6070318,29.0862483 C26.2964391,29.8967267 26.7293929,30.9297482 26.7293929,32.0725377 C26.7293929,33.2002905 26.3069989,34.2197791 25.6356942,35.0242427 M26.1320071,27.9224074 C25.0820564,26.8999116 23.6504425,26.263859 22.0694822,26.263859 C20.4885218,26.263859 19.0569079,26.8999116 18.0039401,27.9224074 C17.6509394,28.266748 17.3552636,28.6622133 17.0973016,29.0862483 C16.5647834,29.9628882 16.2419538,30.9778657 16.2419538,32.0725377 C16.2419538,33.1551804 16.5587492,34.1566249 17.0776904,35.0242427 C17.3296183,35.4467741 17.6162427,35.8437431 17.9632092,36.1880836 C19.0176856,37.2331345 20.4674021,37.8797128 22.0694822,37.8797128 C23.6685451,37.8797128 25.1197701,37.2331345 26.172738,36.1880836 C26.521213,35.8437431 26.806329,35.4467741 27.0582568,35.0242427 C27.577198,34.1566249 27.895502,33.1551804 27.895502,32.0725377 C27.895502,30.9778657 27.5711638,29.9628882 27.0401542,29.0862483 C26.7837007,28.6622133 26.4850078,28.266748 26.1320071,27.9224074" id="Fill-12" fill="#58595B"></path>
                                </g>
                                <g id="Page-1" transform="translate(50.694921, 14.073138) rotate(6.000000) translate(-50.694921, -14.073138) translate(33.694921, 1.915962)">
                                    <g id="Group-3" transform="translate(0.000000, 0.019968)">
                                        <mask id="mask-4" fill="white">
                                            <use xlink:href="#path-3"></use>
                                        </mask>
                                        <g id="Clip-2"></g>
                                        <path d="M32.532881,16.5705322 L28.3074272,16.5705322 L28.3074272,16.0994534 C28.3074272,15.8218068 28.0810226,15.595557 27.8024387,15.595557 L25.2445967,15.595557 C24.9660129,15.595557 24.7392545,15.8218068 24.7392545,16.0994534 L24.7392545,16.5705322 L8.3240325,16.5705322 L8.3240325,16.0994534 C8.3240325,15.8218068 8.09745096,15.595557 7.81886711,15.595557 L5.26102513,15.595557 C4.98261816,15.595557 4.75603662,15.8218068 4.75603662,16.0994534 L4.75603662,16.5705322 L0.530582849,16.5705322 L0.530582849,14.9619534 C0.530582849,14.657393 0.770076524,14.4099594 1.06457946,14.4099594 L31.9988844,14.4099594 C32.2933873,14.4099594 32.532881,14.657393 32.532881,14.9619534 L32.532881,16.5705322 Z M25.2698904,18.1553226 L27.7767913,18.1553226 L27.7767913,16.1164698 L25.2698904,16.1164698 L25.2698904,18.1553226 Z M25.2698904,19.3334538 L27.7767913,19.3334538 L27.7767913,18.6762355 L25.2698904,18.6762355 L25.2698904,19.3334538 Z M5.28667253,18.1553226 L7.79339659,18.1553226 L7.79339659,16.1164698 L5.28667253,16.1164698 L5.28667253,18.1553226 Z M5.28667253,19.3334538 L7.79339659,19.3334538 L7.79339659,18.6762355 L5.28667253,18.6762355 L5.28667253,19.3334538 Z M32.532881,22.1944807 C32.532881,22.4990411 32.2933873,22.7464747 31.9988844,22.7464747 L1.06457946,22.7464747 C0.770076524,22.7464747 0.530582849,22.4990411 0.530582849,22.1944807 L0.530582849,17.091445 L4.75603662,17.091445 L4.75603662,19.350123 C4.75603662,19.6281168 4.98261816,19.8543667 5.26102513,19.8543667 L7.81886711,19.8543667 C8.09745096,19.8543667 8.3240325,19.6281168 8.3240325,19.350123 L8.3240325,17.091445 L24.7392545,17.091445 L24.7392545,19.350123 C24.7392545,19.6281168 24.9660129,19.8543667 25.2445967,19.8543667 L27.8024387,19.8543667 C28.0810226,19.8543667 28.3074272,19.6281168 28.3074272,19.350123 L28.3074272,17.091445 L32.532881,17.091445 L32.532881,22.1944807 Z M5.59886333,7.18628763 L5.59886333,6.26652921 C5.59886333,5.90675209 5.87178707,5.61104724 6.22448307,5.56190779 L7.30521155,5.56190779 C7.08446701,6.3717536 6.43143108,6.99407079 5.59886333,7.18628763 L5.59886333,7.18628763 Z M5.59886333,9.45850937 L5.59886333,7.72074418 C6.72699528,7.51046904 7.61174222,6.66329115 7.85300469,5.56190779 L9.08213434,5.56190779 L9.08213434,9.45850937 L5.59886333,9.45850937 Z M7.30786472,13.8886993 L6.3268958,13.8886993 C5.92538129,13.8886993 5.59886333,13.5681643 5.59886333,13.1738333 L5.59886333,12.2540749 C6.43479177,12.4469863 7.08959649,13.0736444 7.30786472,13.8886993 L7.30786472,13.8886993 Z M5.59886333,11.7196183 L5.59886333,9.9794222 L9.08213434,9.9794222 L9.08213434,13.8886993 L7.85459659,13.8886993 C7.61634107,12.7821068 6.73035597,11.9300671 5.59886333,11.7196183 L5.59886333,11.7196183 Z M10.4743461,7.9419585 C10.4732848,7.79870747 10.3551299,7.68306482 10.209205,7.68306482 C10.0632801,7.68306482 9.94512521,7.79870747 9.94406394,7.9419585 C9.82467086,7.97755421 9.7134142,8.036591 9.61277025,8.11559611 L9.61277025,5.56190779 L10.8049323,5.56190779 L10.8049323,8.11490156 C10.7044652,8.03624372 10.5935623,7.97720693 10.4743461,7.9419585 L10.4743461,7.9419585 Z M10.8049323,11.3799832 L10.8049323,13.8886993 L9.61277025,13.8886993 L9.61277025,11.3799832 C9.65822806,11.3898805 9.7051009,11.3956105 9.75338877,11.3956105 L10.6651981,11.3956105 C10.7131323,11.3956105 10.7598282,11.3898805 10.8049323,11.3799832 L10.8049323,11.3799832 Z M10.6651981,10.8746977 L9.75338877,10.8746977 C9.6760928,10.8746977 9.61330089,10.8017699 9.61330089,10.7123465 L9.61330089,9.34217218 C9.61330089,8.98986147 9.74985119,8.67679286 9.94388706,8.52312358 L9.94388706,8.8030274 C9.94388706,8.94679934 10.0625726,9.06348381 10.209205,9.06348381 C10.3558374,9.06348381 10.474523,8.94679934 10.474523,8.8030274 L10.474523,8.52312358 C10.6674976,8.67609831 10.8036941,8.98673599 10.8049323,9.33713669 L10.8049323,10.7133884 C10.8044016,10.8024645 10.7421404,10.8746977 10.6651981,10.8746977 L10.6651981,10.8746977 Z M11.3357451,9.45850937 L11.3357451,9.34217218 C11.3357451,9.3404358 11.3355682,9.33922034 11.3355682,9.33748396 L11.3355682,5.56190779 L21.7271881,5.56190779 L21.7271881,9.45850937 L11.3357451,9.45850937 Z M13.6519708,11.0443417 L13.6519708,9.9794222 L19.4125543,9.9794222 L19.4125543,11.0443417 C19.4125543,11.5218451 19.0283739,11.9100988 18.5561079,11.9100988 L14.5073559,11.9100988 C14.0356206,11.9100988 13.6519708,11.5218451 13.6519708,11.0443417 L13.6519708,11.0443417 Z M14.5073559,12.4310116 L18.5561079,12.4310116 C19.321108,12.4310116 19.9431902,11.8090417 19.9431902,11.0443417 L19.9431902,9.9794222 L21.7271881,9.9794222 L21.7271881,13.8886993 L11.3355682,13.8886993 L11.3355682,10.7139093 C11.3355682,10.7137356 11.3357451,10.7130411 11.3357451,10.7123465 L11.3357451,9.9794222 L13.1213349,9.9794222 L13.1213349,11.0443417 C13.1213349,11.8090417 13.7430633,12.4310116 14.5073559,12.4310116 L14.5073559,12.4310116 Z M23.1193999,7.9419585 C23.1185155,7.79870747 23.0001837,7.68306482 22.8542588,7.68306482 C22.7083339,7.68306482 22.590179,7.79870747 22.5891177,7.9419585 C22.4697247,7.97720693 22.358468,8.036591 22.257824,8.11559611 L22.257824,5.56190779 L23.4498092,5.56190779 L23.4498092,8.11490156 C23.349519,8.03624372 23.2386161,7.97720693 23.1193999,7.9419585 L23.1193999,7.9419585 Z M23.4498092,11.3799832 L23.4498092,13.8886993 L22.257824,13.8886993 L22.257824,11.3799832 C22.3032819,11.3898805 22.3501547,11.3956105 22.3982657,11.3956105 L23.3098982,11.3956105 C23.3580092,11.3956105 23.4047051,11.3898805 23.4498092,11.3799832 L23.4498092,11.3799832 Z M23.3098982,10.8746977 L22.3982657,10.8746977 C22.3211466,10.8746977 22.2581778,10.8017699 22.2581778,10.7123465 L22.2581778,9.34217218 C22.2581778,8.98986147 22.394905,8.67679286 22.5889409,8.52312358 L22.5889409,8.8030274 C22.5889409,8.94679934 22.7078033,9.06348381 22.8542588,9.06348381 C23.0008912,9.06348381 23.1195768,8.94679934 23.1195768,8.8030274 L23.1195768,8.52347085 C23.3134358,8.67714013 23.4498092,8.98986147 23.4498092,9.34217218 L23.4498092,10.7123465 C23.4498092,10.8017699 23.3870173,10.8746977 23.3098982,10.8746977 L23.3098982,10.8746977 Z M27.4646005,12.2540749 L27.4646005,13.1738333 C27.4646005,13.5681643 27.1380825,13.8886993 26.736568,13.8886993 L25.7561297,13.8886993 C25.9738673,13.0736444 26.6284952,12.4469863 27.4646005,12.2540749 L27.4646005,12.2540749 Z M25.2093979,13.8886993 L23.9804451,13.8886993 L23.9804451,10.7123465 L23.9804451,9.9794222 L27.4646005,9.9794222 L27.4646005,11.7196183 C26.332931,11.9300671 25.4471228,12.7821068 25.2093979,13.8886993 L25.2093979,13.8886993 Z M25.2093979,5.55166318 C25.4476534,6.65790838 26.3334616,7.50977449 27.4646005,7.72074418 L27.4646005,9.45850937 L23.9804451,9.45850937 L23.9804451,9.34217218 L23.9804451,5.56190779 L24.1951758,5.56190779 C24.2510694,5.56190779 24.3053712,5.55774049 24.3587885,5.55166318 L25.2093979,5.55166318 Z M27.761226,13.8890466 L31.9988844,13.8890466 C32.5859446,13.8890466 33.0635169,14.3701964 33.0635169,14.9619534 L33.0635169,22.1944807 C33.0635169,22.7862377 32.5859446,23.2673875 31.9988844,23.2673875 L1.06457946,23.2673875 C0.477519258,23.2673875 -5.30635913e-05,22.7862377 -5.30635913e-05,22.1944807 L-5.30635913e-05,14.9619534 C-5.30635913e-05,14.3701964 0.477519258,13.8890466 1.06457946,13.8890466 L5.30206098,13.8890466 C5.15542858,13.6869324 5.06822742,13.440367 5.06822742,13.1738333 L5.06822742,6.26652921 C5.06822742,6.00433642 5.12162618,5.43065442 5.2638366,5.23062389 L26.736568,5.03075035 C27.4306398,5.03075035 27.9952364,5.58482796 27.9952364,6.26652921 L27.9952364,13.1738333 C27.9952364,13.440367 27.9080352,13.6869324 27.761226,13.8890466 Z" id="Fill-1" stroke="#58595B" stroke-width="0.5" fill="#58595B" mask="url(#mask-4)"></path>
                                    </g>
                                    <path d="M20.7825501,19.4721382 C20.7825501,19.5468024 20.7291327,19.6074019 20.6635108,19.6074019 L12.3999177,19.6074019 C12.3342957,19.6074019 12.2808784,19.5468024 12.2808784,19.4721382 L12.2808784,18.4659082 C12.2808784,18.3912441 12.3342957,18.3306445 12.3999177,18.3306445 L20.6635108,18.3306445 C20.7291327,18.3306445 20.7825501,18.3912441 20.7825501,18.4659082 L20.7825501,19.4721382 Z M20.6635108,17.8097317 L12.3999177,17.8097317 C12.0417385,17.8097317 11.7502425,18.1040475 11.7502425,18.4659082 L11.7502425,19.4721382 C11.7502425,19.833999 12.0417385,20.1283147 12.3999177,20.1283147 L20.6635108,20.1283147 C21.0218669,20.1283147 21.313186,19.833999 21.313186,19.4721382 L21.313186,18.4659082 C21.313186,18.1040475 21.0218669,17.8097317 20.6635108,17.8097317 L20.6635108,17.8097317 Z" id="Fill-4" fill="#58595B"></path>
                                </g>
                            </g>
                        </g>
                    </g>
                </g>
            </g>
        </g>
    </g>
</svg>