<?xml version="1.0" encoding="UTF-8"?>
<svg width="107px" height="41px" viewBox="0 0 107 41" version="1.1" xmlns="http://www.w3.org/2000/svg" xmlns:xlink="http://www.w3.org/1999/xlink">
    <!-- Generator: Sketch 44.1 (41455) - http://www.bohemiancoding.com/sketch -->
    <title>sedan_big</title>
    <desc>Created with Sketch.</desc>
    <defs>
        <polygon id="path-1" points="105.784047 40.5984993 105.784047 0.291110589 0.000452564981 0.291110589 0.000452564981 40.5984993"></polygon>
    </defs>
    <g id="Page-1" stroke="none" stroke-width="1" fill="none" fill-rule="evenodd">
        <g id="homepage-copy" transform="translate(-503.000000, -1307.000000)">
            <g id="Group-18" transform="translate(336.000000, 1284.000000)">
                <g id="Group-6">
                    <g id="Group-17">
                        <g id="Group-5">
                            <g id="sedan_big" transform="translate(220.240786, 43.422389) scale(-1, 1) translate(-220.240786, -43.422389) translate(167.240786, 22.581517)">
                                <g id="Group-3" transform="translate(0.000000, 0.344641)">
                                    <mask id="mask-2" fill="white">
                                        <use xlink:href="#path-1"></use>
                                    </mask>
                                    <g id="Clip-2" opacity="0.500226449"></g>
                                    <path d="M93.9212631,26.3406966 C92.3282344,22.8326335 88.7921933,20.3831544 84.6859204,20.3831544 C80.5781389,20.3831544 77.0436064,22.8326335 75.4505777,26.3406966 L31.3043723,26.3406966 C29.7128521,22.8326335 26.1768111,20.3831544 22.0690296,20.3831544 C17.9612481,20.3831544 14.4252071,22.8326335 12.8321783,26.3406966 L1.69606269,26.3406966 C1.39586126,25.4384943 1.22388656,24.4806563 1.18617282,23.4867301 L4.13538794,23.4867301 C4.45821763,23.4867301 4.71919677,23.2265952 4.71919677,22.9048097 C4.71919677,22.5830242 4.45821763,22.3228893 4.13538794,22.3228893 L1.16656167,22.3228893 L1.16656167,18.4990554 L4.13538794,18.4990554 C4.45821763,18.4990554 4.71919677,18.2374168 4.71919677,17.9156313 C4.71919677,17.5953495 4.45821763,17.3337109 4.13538794,17.3337109 L1.19824122,17.3337109 C1.28121146,16.0856644 1.79411844,14.9248309 2.70377405,14.0451837 C3.65566906,13.1264411 4.89720566,12.6257189 6.24132366,12.6257189 L6.41028125,12.6287262 L10.4471609,12.552039 C10.9706277,12.5415133 11.4865518,12.3986646 11.9421339,12.137026 L26.384991,3.7901516 C29.0279705,2.26242248 32.0420532,1.45495148 35.1013925,1.45495148 L49.2953389,1.45495148 C56.3764723,1.45495148 63.2237804,3.54054232 69.0965654,7.48617344 L78.9624819,14.1158562 C79.8298982,14.6225931 80.8179984,14.9082905 81.8226926,14.9458823 L97.2476157,15.5157734 L97.2506328,15.5157734 C99.9041722,15.6014826 102.176048,17.0149328 103.470384,19.1020273 L97.5553599,19.1020273 C97.2325302,19.1020273 96.9715511,19.3621622 96.9715511,19.6839477 C96.9715511,20.0057332 97.2325302,20.2643645 97.5553599,20.2643645 L104.069279,20.2643645 C104.419262,21.1410043 104.618391,22.0943314 104.618391,23.0987832 C104.618391,24.231047 104.428313,25.3197044 104.087381,26.3406966 L93.9212631,26.3406966 Z M94.384388,33.4350135 C94.6695039,32.5042415 94.8263931,31.5148264 94.8263931,30.4908269 C94.8263931,29.4517906 94.6664868,28.4488425 94.3738281,27.5045374 L103.615205,27.5045374 C101.970886,30.9674904 98.4619984,33.3793777 94.384388,33.4350135 L94.384388,33.4350135 Z M93.117206,33.4425318 C92.9738938,33.8470192 92.8019191,34.2319588 92.604299,34.6078764 C91.1048004,37.4618428 88.1374827,39.4346584 84.6859204,39.4346584 C81.2343581,39.4346584 78.2670404,37.4618428 76.7675418,34.6078764 C76.5699217,34.2319588 76.397947,33.8470192 76.2546348,33.4425318 C75.9257709,32.5132635 75.7130654,31.5313668 75.7130654,30.4908269 C75.7130654,29.4397612 75.928788,28.4443314 76.2651947,27.5045374 C76.411524,27.1000501 76.5865158,26.7166142 76.7856444,26.3406966 C78.2926858,23.5047742 81.2494436,21.5469953 84.6859204,21.5469953 C88.1223972,21.5469953 91.079155,23.5047742 92.5846879,26.3406966 C92.785325,26.7166142 92.9603168,27.1000501 93.1066462,27.5045374 C93.4430528,28.4443314 93.6587754,29.4397612 93.6587754,30.4908269 C93.6587754,31.5313668 93.4460699,32.5132635 93.117206,33.4425318 L93.117206,33.4425318 Z M74.9889614,33.4425318 L31.7659886,33.4425318 C32.0511045,32.5087525 32.2095023,31.5178337 32.2095023,30.4908269 C32.2095023,29.4517906 32.049596,28.4488425 31.7569373,27.5045374 L74.9980127,27.5045374 C74.705354,28.4488425 74.5454477,29.4517906 74.5454477,30.4908269 C74.5454477,31.5178337 74.7038455,32.5087525 74.9889614,33.4425318 L74.9889614,33.4425318 Z M30.5003152,33.4425318 C30.357003,33.8470192 30.1865368,34.2319588 29.9889168,34.6078764 C28.4879096,37.4618428 25.5205919,39.4346584 22.0690296,39.4346584 C18.6189759,39.4346584 15.6501496,37.4618428 14.1491424,34.6078764 C13.9515224,34.2319588 13.7795477,33.8470192 13.6362354,33.4425318 C13.3073716,32.5132635 13.094666,31.5313668 13.094666,30.4908269 C13.094666,29.4397612 13.3103887,28.4443314 13.6483038,27.5045374 C13.7931246,27.1000501 13.9681164,26.7166142 14.1687536,26.3406966 C15.675795,23.5047742 18.6325528,21.5469953 22.0690296,21.5469953 C25.5055064,21.5469953 28.4622642,23.5047742 29.9693056,26.3406966 C30.1684342,26.7166142 30.343426,27.1000501 30.4897554,27.5045374 C30.826162,28.4443314 31.0418846,29.4397612 31.0418846,30.4908269 C31.0418846,31.5313668 30.8291791,32.5132635 30.5003152,33.4425318 L30.5003152,33.4425318 Z M12.3720706,33.4425318 L11.5468938,33.4425318 C7.40441566,33.4425318 3.83367796,31.0080895 2.16974738,27.5045374 L12.3811219,27.5045374 C12.0869547,28.4488425 11.9270484,29.4517906 11.9270484,30.4908269 C11.9270484,31.5178337 12.0854461,32.5087525 12.3720706,33.4425318 L12.3720706,33.4425318 Z M97.2898551,14.3534361 L81.8664406,13.7835451 C81.0548407,13.7534717 80.2538007,13.5204027 79.5840045,13.1309521 L69.7497675,6.52232072 C63.6838882,2.44587027 56.6118061,0.291110589 49.2953389,0.291110589 L35.1013925,0.291110589 C31.838399,0.291110589 28.6221705,1.15271373 25.798165,2.78419611 L11.358325,11.1295668 C11.0747177,11.2919632 10.751888,11.3821834 10.4245326,11.3881981 L6.41631545,11.4648853 C4.75992762,11.4032348 3.11259109,12.0287617 1.89066564,13.209143 C0.671757287,14.3865169 0.000452564981,15.9683782 0.000452564981,17.6630147 L0.000452564981,23.0987832 C0.000452564981,29.4442723 5.1793045,34.6078764 11.5468938,34.6078764 L12.8155843,34.6078764 C14.4010703,38.1324798 17.9491797,40.5984993 22.0690296,40.5984993 C26.190388,40.5984993 29.7369889,38.1324798 31.3209664,34.6078764 L75.4339836,34.6078764 C77.0194696,38.1324798 80.564562,40.5984993 84.6859204,40.5984993 C88.8057703,40.5984993 92.3523712,38.1324798 93.9378572,34.6078764 L94.2395672,34.6078764 C100.605648,34.6078764 105.7845,29.4442723 105.7845,23.0987832 C105.7845,18.3471847 102.053856,14.5068105 97.2898551,14.3534361 L97.2898551,14.3534361 Z" id="Fill-1" fill="#58595B" mask="url(#mask-2)"></path>
                                </g>
                                <path d="M52.1001858,13.9092519 C52.0956601,13.8866969 52.0986772,13.8641418 52.0896259,13.8430904 L49.1177825,5.4014848 L50.0364895,5.4014848 C57.1432682,5.4014848 64.0433756,7.92464373 69.4651041,12.5063274 L71.9149892,14.5723706 L52.1001858,13.9092519 Z M31.066474,13.2040305 C30.0301002,13.1694461 29.1430728,12.5559486 28.7478327,11.6011179 C28.3495756,10.6447835 28.545687,9.58018484 29.3572869,8.71707803 C31.3349959,6.6104358 34.1212876,5.4014848 36.9980923,5.4014848 L47.8807716,5.4014848 L50.8631748,13.8671491 L31.066474,13.2040305 Z M50.0364895,4.23764391 L36.9980923,4.23764391 C33.7984579,4.23764391 30.7014049,5.58042158 28.4038834,8.02689332 C27.3750523,9.12156537 27.094462,10.6613239 27.667711,12.0462043 C28.24096,13.4280774 29.5277531,14.3167466 31.0257431,14.3678714 L73.2198849,15.7813216 L73.2410046,15.7813216 C73.5502573,15.7813216 73.8157621,15.5873481 73.9092922,15.2926287 L73.977177,14.7934101 L70.2208876,11.6176582 C64.5864536,6.85854142 57.4193329,4.23764391 50.0364895,4.23764391 L50.0364895,4.23764391 Z" id="Fill-4" fill="#58595B"></path>
                                <path d="M88.2522833,33.7874738 C87.851009,34.2686484 87.3592217,34.6641137 86.7965326,34.9513147 C86.1599245,35.2776112 85.4509061,35.479103 84.6860713,35.479103 C83.9212364,35.479103 83.2107094,35.2776112 82.5741013,34.9513147 C82.0114122,34.6641137 81.5196249,34.2686484 81.1183507,33.7874738 C80.4470459,32.9830102 80.0261605,31.9635216 80.0261605,30.8357688 C80.0261605,29.6929793 80.4591143,28.6599578 81.1470131,27.8494794 C81.5588472,27.3652976 82.0611944,26.9698323 82.6374604,26.6856385 C83.2574745,26.3803935 83.9468818,26.1924347 84.6860713,26.1924347 C85.4237522,26.1924347 86.1131595,26.3803935 86.7331735,26.6856385 C87.3094396,26.9698323 87.8117867,27.3652976 88.2236209,27.8494794 C88.9115196,28.6599578 89.345982,29.6929793 89.345982,30.8357688 C89.345982,31.9635216 88.923588,32.9830102 88.2522833,33.7874738 M88.7485962,26.6856385 C87.6986455,25.6631427 86.2670316,25.0270901 84.6860713,25.0270901 C83.1051109,25.0270901 81.673497,25.6631427 80.6220377,26.6856385 C80.269037,27.0299791 79.9733613,27.4254444 79.7153992,27.8494794 C79.1828811,28.7261193 78.8600514,29.7410968 78.8600514,30.8357688 C78.8600514,31.9184115 79.1768469,32.919856 79.6957881,33.7874738 C79.9477159,34.2100052 80.2343404,34.6069742 80.5813069,34.9513147 C81.6342747,35.9963656 83.0854998,36.6429439 84.6860713,36.6429439 C86.2851342,36.6429439 87.7363592,35.9963656 88.7893271,34.9513147 C89.1378021,34.6069742 89.4229181,34.2100052 89.6748459,33.7874738 C90.1937871,32.919856 90.5105826,31.9184115 90.5105826,30.8357688 C90.5105826,29.7410968 90.1877529,28.7261193 89.6567433,27.8494794 C89.3987813,27.4254444 89.1015969,27.0299791 88.7485962,26.6856385" id="Fill-6" fill="#58595B"></path>
                                <path d="M56.7186114,18.1986221 L53.6954773,18.1986221 C53.3726476,18.1986221 53.1116685,18.4587571 53.1116685,18.7805425 C53.1116685,19.102328 53.3726476,19.362463 53.6954773,19.362463 L56.7186114,19.362463 C57.0414411,19.362463 57.3024202,19.102328 57.3024202,18.7805425 C57.3024202,18.4587571 57.0414411,18.1986221 56.7186114,18.1986221" id="Fill-8" fill="#58595B"></path>
                                <path d="M34.197922,18.1986221 L31.1747879,18.1986221 C30.8519582,18.1986221 30.5909791,18.4587571 30.5909791,18.7805425 C30.5909791,19.102328 30.8519582,19.362463 31.1747879,19.362463 L34.197922,19.362463 C34.5207516,19.362463 34.7817308,19.102328 34.7817308,18.7805425 C34.7817308,18.4587571 34.5207516,18.1986221 34.197922,18.1986221" id="Fill-10" fill="#58595B"></path>
                                <path d="M25.6356942,33.7874738 C25.2344199,34.2686484 24.7426327,34.6641137 24.1814521,34.9513147 C23.5433355,35.2776112 22.834317,35.479103 22.0694822,35.479103 C21.3061559,35.479103 20.5941203,35.2776112 19.9575123,34.9513147 C19.3933146,34.6641137 18.9030358,34.2686484 18.5017616,33.7874738 C17.8289483,32.9830102 17.4080629,31.9635216 17.4080629,30.8357688 C17.4080629,29.6929793 17.8410167,28.6599578 18.530424,27.8494794 C18.9422581,27.3652976 19.4446053,26.9698323 20.0208714,26.6856385 C20.6408854,26.3803935 21.3302927,26.1924347 22.0694822,26.1924347 C22.8071631,26.1924347 23.4965704,26.3803935 24.118093,26.6856385 C24.6928505,26.9698323 25.1967062,27.3652976 25.6070318,27.8494794 C26.2964391,28.6599578 26.7293929,29.6929793 26.7293929,30.8357688 C26.7293929,31.9635216 26.3069989,32.9830102 25.6356942,33.7874738 M26.1320071,26.6856385 C25.0820564,25.6631427 23.6504425,25.0270901 22.0694822,25.0270901 C20.4885218,25.0270901 19.0569079,25.6631427 18.0039401,26.6856385 C17.6509394,27.0299791 17.3552636,27.4254444 17.0973016,27.8494794 C16.5647834,28.7261193 16.2419538,29.7410968 16.2419538,30.8357688 C16.2419538,31.9184115 16.5587492,32.919856 17.0776904,33.7874738 C17.3296183,34.2100052 17.6162427,34.6069742 17.9632092,34.9513147 C19.0176856,35.9963656 20.4674021,36.6429439 22.0694822,36.6429439 C23.6685451,36.6429439 25.1197701,35.9963656 26.172738,34.9513147 C26.521213,34.6069742 26.806329,34.2100052 27.0582568,33.7874738 C27.577198,32.919856 27.895502,31.9184115 27.895502,30.8357688 C27.895502,29.7410968 27.5711638,28.7261193 27.0401542,27.8494794 C26.7837007,27.4254444 26.4850078,27.0299791 26.1320071,26.6856385" id="Fill-12" fill="#58595B"></path>
                            </g>
                        </g>
                    </g>
                </g>
            </g>
        </g>
    </g>
</svg>