<?xml version="1.0" encoding="UTF-8"?>
<svg width="111px" height="42px" viewBox="0 0 111 42" version="1.1" xmlns="http://www.w3.org/2000/svg" xmlns:xlink="http://www.w3.org/1999/xlink">
    <!-- Generator: Sketch 44.1 (41455) - http://www.bohemiancoding.com/sketch -->
    <title>suv_big</title>
    <desc>Created with Sketch.</desc>
    <defs></defs>
    <g id="Page-1" stroke="none" stroke-width="1" fill="none" fill-rule="evenodd">
        <g id="homepage-copy" transform="translate(-827.000000, -1307.000000)" fill="#58595B">
            <g id="Group-18" transform="translate(336.000000, 1284.000000)">
                <g id="Group-6">
                    <g id="Group-17">
                        <g id="Group-5">
                            <g id="suv_big" transform="translate(546.500000, 44.290759) scale(-1, 1) translate(-546.500000, -44.290759) translate(491.000000, 23.449887)">
                                <path d="M98.1475362,26.8246078 C96.4837062,23.2122362 92.7920833,20.6899244 88.5033094,20.6899244 C84.2113842,20.6899244 80.5197614,23.2122362 78.8559314,26.8246078 L32.749248,26.8246078 C31.085418,23.2122362 27.3922196,20.6899244 23.10187,20.6899244 C18.8115205,20.6899244 15.1198977,23.2122362 13.4560677,26.8246078 L1.82501354,26.8246078 C1.51146982,25.8955795 1.33185181,24.9092612 1.2908863,23.8857817 L4.37117765,23.8857817 C4.70835532,23.8857817 4.97935794,23.6179119 4.97935794,23.2865584 C4.97935794,22.955205 4.70835532,22.6873352 4.37117765,22.6873352 L1.26567675,22.6873352 L1.2404672,18.7498036 L4.37117765,18.7498036 C4.70835532,18.7498036 4.97935794,18.4803854 4.97935794,18.149032 C4.97935794,17.819227 4.70835532,17.5498088 4.37117765,17.5498088 L1.23258922,17.5498088 L1.21683326,15.4006567 C1.21368206,14.4499511 1.53195258,13.5100841 2.11649891,12.7544745 L8.72297546,4.21825292 C10.1882803,2.32768036 12.5075585,1.198911 14.9245237,1.198911 L53.7535263,1.198911 C59.7014035,1.198911 65.4507555,2.92535523 70.3807973,6.19243802 L82.5254959,14.2362746 C83.4298883,14.7580788 84.4619041,15.0522711 85.5096758,15.0909806 L101.620151,15.6778168 L101.624878,15.6778168 C104.396352,15.7660745 106.769201,17.2215521 108.121063,19.3707042 L101.941573,19.3707042 C101.605971,19.3707042 101.333392,19.638574 101.333392,19.9699275 C101.333392,20.3012809 101.605971,20.5676023 101.941573,20.5676023 L108.74815,20.5676023 C109.113689,21.4703081 109.320092,22.4519814 109.320092,23.4862995 C109.320092,24.65223 109.121566,25.7732575 108.767057,26.8246078 L98.1475362,26.8246078 Z M98.6328199,34.1298669 C98.9290321,33.1714194 99.0928941,32.152585 99.0928941,31.0981379 C99.0928941,30.028207 98.9258809,28.9954372 98.6202152,28.0230543 L108.273896,28.0230543 C106.55492,31.5889745 102.891658,34.0725768 98.6328199,34.1298669 L98.6328199,34.1298669 Z M97.3077432,34.1376088 C97.1580615,34.5541231 96.9800191,34.9505085 96.7736159,35.3376036 C95.2058973,38.2764298 92.1066988,40.307905 88.5033094,40.307905 C84.8983444,40.307905 81.7975702,38.2764298 80.2298516,35.3376036 C80.0234485,34.9505085 79.845406,34.5541231 79.6941488,34.1376088 C79.3506687,33.1807096 79.1285096,32.1696172 79.1285096,31.0981379 C79.1285096,30.01582 79.3538199,28.9907921 79.7067535,28.0230543 C79.8580108,27.6065399 80.0423556,27.2117029 80.2503344,26.8246078 C81.8243554,23.9043622 84.9141003,21.8883709 88.5033094,21.8883709 C92.0925184,21.8883709 95.1791122,23.9043622 96.7531332,26.8246078 C96.9611119,27.2117029 97.1454567,27.6065399 97.296714,28.0230543 C97.648072,28.9907921 97.8733824,30.01582 97.8733824,31.0981379 C97.8733824,32.1696172 97.6527988,33.1807096 97.3077432,34.1376088 L97.3077432,34.1376088 Z M78.3737988,34.1376088 L33.229805,34.1376088 C33.5291684,33.1760645 33.6930304,32.1556818 33.6930304,31.0981379 C33.6930304,30.028207 33.5275928,28.9954372 33.2203514,28.0230543 L78.3832524,28.0230543 C78.0775867,28.9954372 77.9105734,30.028207 77.9105734,31.0981379 C77.9105734,32.1556818 78.0744355,33.1760645 78.3737988,34.1376088 L78.3737988,34.1376088 Z M31.909455,34.1376088 C31.7597734,34.5541231 31.5801554,34.9505085 31.3737522,35.3376036 C29.8060336,38.2764298 26.7052595,40.307905 23.10187,40.307905 C19.496905,40.307905 16.3977065,38.2764298 14.8299879,35.3376036 C14.6235847,34.9505085 14.4455423,34.5541231 14.2958606,34.1376088 C13.9523806,33.1807096 13.7302215,32.1696172 13.7302215,31.0981379 C13.7302215,30.01582 13.9555318,28.9907921 14.3068898,28.0230543 C14.4581471,27.6065399 14.6424919,27.2117029 14.8504706,26.8246078 C16.4244917,23.9043622 19.512661,21.8883709 23.10187,21.8883709 C26.6910791,21.8883709 29.7792484,23.9043622 31.3532694,26.8246078 C31.5612482,27.2117029 31.745593,27.6065399 31.8968503,28.0230543 C32.2497839,28.9907921 32.4750942,30.01582 32.4750942,31.0981379 C32.4750942,32.1696172 32.2529351,33.1807096 31.909455,34.1376088 L31.909455,34.1376088 Z M12.9739351,34.1376088 L12.1120838,34.1376088 C7.78707108,34.1376088 4.05763393,31.6307808 2.31975088,28.0230543 L12.9833887,28.0230543 C12.6777229,28.9954372 12.5107097,30.028207 12.5107097,31.0981379 C12.5107097,32.1556818 12.6745717,33.1760645 12.9739351,34.1376088 L12.9739351,34.1376088 Z M101.664268,14.4809187 L85.5553681,13.8940825 C84.7092728,13.8631149 83.8742066,13.6231159 83.1730661,13.2220854 L71.0630306,5.19837776 C65.9297369,1.79658586 59.945621,0.000464514142 53.7535263,0.000464514142 L14.9245237,0.000464514142 C12.1278397,0.000464514142 9.4461743,1.30574925 7.75398355,3.49361086 L1.147507,12.0298324 C0.400674216,12.9944734 -0.00898090063,14.1929199 0.00047267898,15.4068502 L0.0524673668,23.4862995 C0.0524673668,30.0204651 5.4614905,35.3376036 12.1120838,35.3376036 L13.4371605,35.3376036 C15.0931125,38.9670075 18.7989157,41.5063514 23.10187,41.5063514 C27.4064,41.5063514 31.1106276,38.9670075 32.7665796,35.3376036 L78.8370242,35.3376036 C80.4929763,38.9670075 84.1972039,41.5063514 88.5033094,41.5063514 C92.8046881,41.5063514 96.5104913,38.9670075 98.1664433,35.3376036 L98.4799871,35.3376036 C105.13058,35.3376036 110.538028,30.0204651 110.538028,23.4862995 C110.538028,18.5934172 106.643153,14.6388535 101.664268,14.4809187 L101.664268,14.4809187 Z" id="Fill-1"></path>
                                <path d="M47.6238253,13.7140058 C47.6222497,13.7093607 47.6238253,13.7047156 47.6238253,13.698522 L46.1159794,4.87585011 L52.3112252,4.9083661 C59.7354364,4.9083661 66.9437908,7.50654853 72.6033338,12.2244638 L75.1794343,14.3643256 L47.6238253,13.7140058 Z M24.9415366,13.1782662 L28.1998704,4.78294728 L44.879136,4.86965658 L46.3854064,13.6845866 L24.9415366,13.1782662 Z M23.6448206,13.1472986 L8.47655216,12.7880743 C8.13779889,12.7803324 7.98023923,12.5511721 7.92824454,12.4520758 C7.87467425,12.3545278 7.77383607,12.0943999 7.96133207,11.8172398 L11.2354218,6.95532508 C12.1792042,5.55249237 13.7626788,4.7179153 15.4722011,4.7179153 L15.4989862,4.7179153 L26.896852,4.77675376 L23.6448206,13.1472986 Z M52.315952,3.70991961 L15.5052886,3.51946881 C13.3782332,3.44359817 11.3929815,4.54449669 10.2175864,6.29416662 L6.94507226,11.1545329 C6.56535348,11.716595 6.52911476,12.4102695 6.84738527,13.006396 C7.16250459,13.6040708 7.7628069,13.971037 8.44661582,13.9865208 L23.8165607,14.3503902 C23.8212875,14.353487 23.8244386,14.3565837 23.8275898,14.3581321 L24.0450222,14.3968416 C24.0907145,14.3968416 24.1301044,14.3689708 24.1742211,14.3596805 L76.528145,15.5968365 L76.5486277,15.5968365 C76.8684738,15.5968365 77.1457788,15.3970954 77.2434658,15.0967096 L77.3206701,14.5810989 L73.3927077,11.309371 C67.5110056,6.40874677 60.0237706,3.70991961 52.315952,3.70991961 L52.315952,3.70991961 Z" id="Fill-3"></path>
                                <path d="M92.2283349,34.1379185 C91.8076506,34.6334002 91.2955817,35.0406243 90.7078841,35.3363649 C90.0429824,35.6723635 89.3008764,35.8798465 88.5036245,35.8798465 C87.704797,35.8798465 86.9611154,35.6723635 86.2962137,35.3363649 C85.7085161,35.0406243 85.1948716,34.6334002 84.7773385,34.1379185 C84.0730469,33.3095349 83.635031,32.2597329 83.635031,31.0984476 C83.635031,29.9216784 84.0856516,28.857941 84.8056993,28.023364 C85.2374127,27.5247855 85.7620864,27.1175614 86.3623887,26.8249175 C87.0115345,26.5105963 87.7315822,26.3170487 88.5036245,26.3170487 C89.2740912,26.3170487 89.9925633,26.5105963 90.6417091,26.8249175 C91.243587,27.1175614 91.7682607,27.5247855 92.1968229,28.023364 C92.9168706,28.857941 93.3690668,29.9216784 93.3690668,31.0984476 C93.3690668,32.2597329 92.9294753,33.3095349 92.2283349,34.1379185 M92.7451305,26.8249175 C91.6485153,25.7720188 90.1532741,25.1170538 88.5036245,25.1170538 C86.8508237,25.1170538 85.3555825,25.7720188 84.2573917,26.8249175 C83.8871265,27.1794966 83.5783095,27.5867207 83.3088825,28.023364 C82.7542725,28.9260698 82.4155192,29.9712266 82.4155192,31.0984476 C82.4155192,32.2132815 82.7463945,33.2445029 83.2899753,34.1379185 C83.5531,34.5730134 83.8524633,34.9817858 84.2148505,35.3363649 C85.314617,36.4124894 86.8303409,37.078293 88.5036245,37.078293 C90.1737569,37.078293 91.6879052,36.4124894 92.7876717,35.3363649 C93.1516345,34.9817858 93.4494222,34.5730134 93.7125469,34.1379185 C94.2545521,33.2445029 94.587003,32.2132815 94.587003,31.0984476 C94.587003,29.9712266 94.2482497,28.9260698 93.6952153,28.023364 C93.4257883,27.5867207 93.1138201,27.1794966 92.7451305,26.8249175" id="Fill-5"></path>
                                <path d="M59.2931664,18.0855484 L56.1340952,18.0855484 C55.7969176,18.0855484 55.5243394,18.3534182 55.5243394,18.6847717 C55.5243394,19.0161251 55.7969176,19.2839949 56.1340952,19.2839949 L59.2931664,19.2839949 C59.6303441,19.2839949 59.9029223,19.0161251 59.9029223,18.6847717 C59.9029223,18.3534182 59.6303441,18.0855484 59.2931664,18.0855484" id="Fill-7"></path>
                                <path d="M35.7715574,18.0855484 L32.6124863,18.0855484 C32.2753086,18.0855484 32.0027304,18.3534182 32.0027304,18.6847717 C32.0027304,19.0161251 32.2753086,19.2839949 32.6124863,19.2839949 L35.7715574,19.2839949 C36.1087351,19.2839949 36.3813133,19.0161251 36.3813133,18.6847717 C36.3813133,18.3534182 36.1087351,18.0855484 35.7715574,18.0855484" id="Fill-9"></path>
                                <path d="M26.8272107,34.1379185 C26.408102,34.6334002 25.8944575,35.0406243 25.3067599,35.3363649 C24.6418582,35.6723635 23.8997522,35.8798465 23.1025003,35.8798465 C22.3036728,35.8798465 21.5615668,35.6723635 20.8950894,35.3363649 C20.3073919,35.0406243 19.795323,34.6334002 19.3762143,34.1379185 C18.6734982,33.3095349 18.2354824,32.2597329 18.2354824,31.0984476 C18.2354824,29.9216784 18.686103,28.857941 19.4061507,28.023364 C19.8362885,27.5247855 20.3609622,27.1175614 20.9612645,26.8249175 C21.6104103,26.5105963 22.330458,26.3170487 23.1025003,26.3170487 C23.872967,26.3170487 24.5930147,26.5105963 25.2405849,26.8249175 C25.8424628,27.1175614 26.3671364,27.5247855 26.7972743,28.023364 C27.517322,28.857941 27.9695182,29.9216784 27.9695182,31.0984476 C27.9695182,32.2597329 27.5299267,33.3095349 26.8272107,34.1379185 M27.3455819,26.8249175 C26.2489667,25.7720188 24.7537255,25.1170538 23.1025003,25.1170538 C21.451275,25.1170538 19.9560339,25.7720188 18.857843,26.8249175 C18.4891534,27.1794966 18.1787609,27.5867207 17.9109095,28.023364 C17.3547239,28.9260698 17.0159706,29.9712266 17.0159706,31.0984476 C17.0159706,32.2132815 17.3484215,33.2445029 17.8904267,34.1379185 C18.1535514,34.5730134 18.4529147,34.9817858 18.8153019,35.3363649 C19.9150684,36.4124894 21.4292167,37.078293 23.1025003,37.078293 C24.7726327,37.078293 26.2883566,36.4124894 27.3896986,35.3363649 C27.7520859,34.9817858 28.0514492,34.5730134 28.3145738,34.1379185 C28.8565791,33.2445029 29.1874544,32.2132815 29.1874544,31.0984476 C29.1874544,29.9712266 28.8487011,28.9260698 28.2956667,28.023364 C28.0262397,27.5867207 27.7158471,27.1794966 27.3455819,26.8249175" id="Fill-11"></path>
                            </g>
                        </g>
                    </g>
                </g>
            </g>
        </g>
    </g>
</svg>